<?xml version="1.0" encoding="utf-8"?>
<svg xmlns="http://www.w3.org/2000/svg">
  <symbol id="bell" viewBox="0 0 1 1">
    <path d="M0.986512 0.675526C0.943108 0.606414 0.920055 0.507212 0.920055 0.388845C0.920055 0.285717 0.875801 0.186813 0.797028 0.11389C0.718254 0.0409675 0.611415 0 0.500013 0C0.388611 0 0.281771 0.0409675 0.202998 0.11389C0.124225 0.186813 0.0799704 0.285717 0.0799704 0.388845C0.0799704 0.507258 0.0570181 0.606414 0.0136137 0.675526C0.00475688 0.689623 6.20514e-05 0.705629 6.10894e-07 0.721936C-6.08297e-05 0.738244 0.00451328 0.754279 0.0132637 0.768433C0.0219587 0.782594 0.034579 0.79435 0.0498217 0.802488C0.0650644 0.810625 0.0823771 0.814849 0.0999724 0.814724H0.280891C0.285853 0.865349 0.311084 0.912427 0.351629 0.94671C0.392174 0.980992 0.445101 1 0.500013 1C0.554925 1 0.607852 0.980992 0.648396 0.94671C0.688941 0.912427 0.714173 0.865349 0.719135 0.814724H0.900053C0.917623 0.814825 0.934905 0.810589 0.950119 0.802452C0.965333 0.794316 0.977929 0.782573 0.986612 0.768433C0.9954 0.754299 1.00002 0.738275 1 0.721967C0.999982 0.70566 0.995331 0.689643 0.986512 0.675526ZM0.500013 0.88879C0.476957 0.888794 0.454609 0.881424 0.436748 0.867927C0.418888 0.85443 0.406614 0.835636 0.402003 0.814724H0.598023C0.593412 0.835636 0.581137 0.85443 0.563277 0.867927C0.545417 0.881424 0.523068 0.888794 0.500013 0.88879ZM0.133276 0.703625C0.17753 0.620301 0.199983 0.51448 0.199983 0.388845C0.199983 0.315182 0.231593 0.244536 0.287859 0.192449C0.344126 0.140361 0.42044 0.111099 0.500013 0.111099C0.579586 0.111099 0.6559 0.140361 0.712166 0.192449C0.768433 0.244536 0.800043 0.315182 0.800043 0.388845C0.800043 0.514433 0.822445 0.620301 0.8667 0.703625H0.133276Z" />
  </symbol>
</svg>
