<?xml version="1.0" encoding="utf-8"?>
<svg xmlns="http://www.w3.org/2000/svg">
  <symbol id="history" viewBox="0 0 1 1">
    <path d="M0.704545 0.545455C0.72965 0.545455 0.75 0.525105 0.75 0.5C0.75 0.474895 0.72965 0.454545 0.704545 0.454545H0.545455V0.204545C0.545455 0.179442 0.525105 0.159091 0.5 0.159091C0.474895 0.159091 0.454545 0.179442 0.454545 0.204545V0.5C0.454545 0.525105 0.474895 0.545455 0.5 0.545455H0.704545Z" />
    <path d="M0.5 0C0.223858 0 0 0.223858 0 0.5C0 0.776141 0.223858 1 0.5 1C0.776141 1 1 0.776141 1 0.5C1 0.223858 0.776141 0 0.5 0ZM0.0909091 0.5C0.0909091 0.274065 0.274065 0.0909091 0.5 0.0909091C0.725936 0.0909091 0.909091 0.274065 0.909091 0.5C0.909091 0.725936 0.725936 0.909091 0.5 0.909091C0.274065 0.909091 0.0909091 0.725936 0.0909091 0.5Z" />
  </symbol>
</svg>
