<?xml version="1.0" encoding="UTF-8"?>
<svg xmlns="http://www.w3.org/2000/svg">
  <symbol id="home" viewBox="0 0 1 1">
    <path d="M0.433333 0.0213333C0.452566 0.00748564 0.475959 0 0.5 0C0.524041 0 0.547434 0.00748564 0.566667 0.0213333L0.955556 0.301333C0.969355 0.311269 0.980556 0.324153 0.98827 0.338964C0.995984 0.353775 1 0.370107 1 0.386667V0.893333C1 0.921623 0.988294 0.948754 0.967456 0.968758C0.946619 0.988762 0.918357 1 0.888889 1H0.111111C0.0816426 1 0.0533811 0.988762 0.0325437 0.968758C0.0117063 0.948754 0 0.921623 0 0.893333V0.386667C0 0.370107 0.00401612 0.353775 0.0117303 0.338964C0.0194445 0.324153 0.0306449 0.311269 0.0444444 0.301333L0.433333 0.0213333Z" />
  </symbol>
</svg>
