<?xml version="1.0" encoding="utf-8"?>
<svg xmlns="http://www.w3.org/2000/svg">
  <symbol id="projects" viewBox="0 0 1 1">
    <g>
      <path d="M0.479902 0.00479867C0.492702 -0.00159956 0.507761 -0.00159956 0.520561 0.00479867L0.975098 0.232071C0.990493 0.239771 1.00022 0.255511 1.00022 0.272727C1.00022 0.289944 0.990493 0.305684 0.975098 0.313383L0.520561 0.540655C0.507761 0.547055 0.492702 0.547055 0.479902 0.540655L0.0253667 0.313383C0.00996788 0.305684 0.000240326 0.289944 0.000240326 0.272727C0.000240326 0.255511 0.00996788 0.239771 0.0253667 0.232071L0.479902 0.00479867ZM0.147332 0.272727L0.500229 0.449182L0.853132 0.272727L0.500229 0.0962741L0.147332 0.272727Z" />
      <path d="M0.00480854 0.706947C0.0160352 0.684492 0.0433378 0.675392 0.0657911 0.686615L0.5 0.903724L0.93421 0.686615C0.956664 0.675392 0.983968 0.684492 0.995191 0.706947C1.00642 0.729397 0.997318 0.756701 0.974864 0.767928L0.520327 0.995201C0.507532 1.0016 0.492468 1.0016 0.479673 0.995201L0.0251363 0.767928C0.00268312 0.756701 -0.00641793 0.729397 0.00480854 0.706947Z" />
      <path d="M0.0657911 0.459343C0.0433378 0.44812 0.0160352 0.45722 0.00480854 0.479675C-0.00641793 0.502125 0.00268312 0.529429 0.0251363 0.540656L0.479673 0.767929C0.492468 0.774329 0.507532 0.774329 0.520327 0.767929L0.974864 0.540656C0.997318 0.529429 1.00642 0.502125 0.995191 0.479675C0.983968 0.45722 0.956664 0.44812 0.93421 0.459343L0.5 0.676452L0.0657911 0.459343Z" />
    </g>
  </symbol>
</svg>
