<?xml version="1.0" encoding="utf-8"?>
<svg xmlns="http://www.w3.org/2000/svg">
  <symbol id="settings" viewBox="0 0 1 1">
    <path d="M0.5 0.326087C0.399589 0.326087 0.318187 0.40395 0.318187 0.5C0.318187 0.596048 0.399589 0.673913 0.5 0.673913C0.600416 0.673913 0.681815 0.596048 0.681815 0.5C0.681815 0.40395 0.600416 0.326087 0.5 0.326087ZM0.409092 0.5C0.409092 0.451974 0.449796 0.413043 0.5 0.413043C0.550208 0.413043 0.590907 0.451974 0.590907 0.5C0.590907 0.548026 0.550208 0.586957 0.5 0.586957C0.449796 0.586957 0.409092 0.548026 0.409092 0.5Z" />
    <path d="M0.467569 0C0.403894 0 0.347544 0.042063 0.335072 0.102437L0.331478 0.119836C0.322944 0.161147 0.275538 0.188287 0.229319 0.173397L0.21128 0.167586C0.151018 0.148172 0.0835771 0.170856 0.0508336 0.223449L0.0184051 0.275537C-0.0146484 0.328629 -0.00207503 0.395864 0.0472387 0.4354L0.061687 0.446983C0.0967887 0.475126 0.0967887 0.524874 0.061687 0.553017L0.0472387 0.5646C-0.00207503 0.604135 -0.0146484 0.67137 0.0184051 0.724461L0.0508322 0.776548C0.0835766 0.829143 0.15102 0.851826 0.211283 0.832413L0.229317 0.8266C0.275536 0.811709 0.322944 0.838848 0.331478 0.880161L0.335072 0.897561C0.347544 0.957935 0.403894 1 0.467569 1H0.532427C0.596107 1 0.652456 0.957935 0.664929 0.897557L0.66852 0.880165C0.677051 0.838852 0.724459 0.811709 0.770681 0.8266L0.788717 0.832413C0.84898 0.851826 0.916424 0.829143 0.949169 0.776548L0.981596 0.724465C1.01465 0.671374 1.00207 0.604135 0.95276 0.5646L0.93831 0.553017C0.903206 0.524878 0.903206 0.475122 0.93831 0.446983L0.95276 0.4354C1.00207 0.395865 1.01465 0.328628 0.981596 0.275536L0.949169 0.223449C0.916424 0.170856 0.848984 0.148172 0.788722 0.167584L0.770677 0.173397C0.724459 0.188287 0.677051 0.161145 0.66852 0.119833L0.664929 0.102442C0.652456 0.0420657 0.596107 0 0.532427 0H0.467569ZM0.424256 0.119293C0.427942 0.10145 0.445369 0.0869565 0.467569 0.0869565H0.532427C0.554631 0.0869565 0.572058 0.10145 0.575744 0.119295L0.579335 0.136687C0.599039 0.232092 0.704119 0.286594 0.79969 0.255806L0.817735 0.249993C0.838598 0.243273 0.860866 0.251563 0.871061 0.267941L0.903488 0.320028C0.913374 0.335907 0.91002 0.356205 0.894365 0.368754L0.87992 0.380336C0.801463 0.44323 0.801463 0.55677 0.87992 0.619665L0.894365 0.631244C0.91002 0.643796 0.913374 0.664091 0.903488 0.679974L0.871061 0.732057C0.860866 0.748435 0.838598 0.756726 0.817735 0.750004L0.799694 0.744191C0.704119 0.7134 0.599039 0.767904 0.579335 0.863313L0.575744 0.880704C0.572058 0.898548 0.554631 0.913043 0.532427 0.913043H0.467569C0.445369 0.913043 0.427942 0.898552 0.424256 0.880704L0.42066 0.863304C0.400953 0.7679 0.295872 0.7134 0.200299 0.744196L0.182265 0.750004C0.161402 0.756726 0.139136 0.748435 0.128939 0.732057L0.0965118 0.67997C0.0866257 0.664091 0.0899797 0.643796 0.105634 0.631244L0.120082 0.619661C0.198534 0.556765 0.198533 0.443235 0.120082 0.380339L0.105634 0.368755C0.0899797 0.356206 0.0866257 0.335909 0.0965118 0.320029L0.12894 0.267942C0.139137 0.251563 0.161403 0.243273 0.182265 0.249994L0.200304 0.255805C0.295875 0.286594 0.400953 0.232095 0.42066 0.136692L0.424256 0.119293Z" />
  </symbol>
</svg>
