<?xml version="1.0" encoding="UTF-8"?>
<svg xmlns="http://www.w3.org/2000/svg">
  <symbol id="user" viewBox="0 0 1 1">
    <g>
      <path d="M0.5 0.5C0.549445 0.5 0.59778 0.485338 0.638892 0.457867C0.680005 0.430397 0.712048 0.391352 0.73097 0.345671C0.749892 0.299989 0.754843 0.249723 0.745196 0.201227C0.73555 0.152732 0.71174 0.108187 0.676777 0.0732234C0.641813 0.0382603 0.597268 0.0144501 0.548773 0.00480379C0.500277 -0.00484251 0.450011 0.000108321 0.404329 0.0190302C0.358648 0.0379521 0.319603 0.0699952 0.292133 0.111108C0.264662 0.15222 0.25 0.200555 0.25 0.25C0.25 0.316304 0.276339 0.379893 0.323223 0.426777C0.370107 0.473661 0.433696 0.5 0.5 0.5ZM0.5 0.0714287C0.535318 0.0714287 0.569843 0.0819017 0.599209 0.101523C0.628575 0.121145 0.651463 0.149034 0.664978 0.181664C0.678494 0.214293 0.68203 0.250198 0.67514 0.284838C0.66825 0.319477 0.651243 0.351295 0.626269 0.376269C0.601295 0.401243 0.569477 0.41825 0.534838 0.42514C0.500198 0.43203 0.464293 0.428494 0.431664 0.414979C0.399034 0.401463 0.371145 0.378575 0.351523 0.349209C0.331902 0.319843 0.321429 0.285318 0.321429 0.25C0.321429 0.20264 0.340242 0.15722 0.373731 0.123731C0.40722 0.0902424 0.45264 0.0714287 0.5 0.0714287Z" />
      <path d="M0.979614 0.722536C0.917933 0.66804 0.843605 0.624632 0.761173 0.594966C0.678741 0.565301 0.589938 0.55 0.500191 0.55C0.410445 0.55 0.321641 0.565301 0.23921 0.594966C0.156778 0.624632 0.0824496 0.66804 0.0207693 0.722536C0.00739671 0.734475 -3.02658e-05 0.750226 9.27039e-08 0.766583V0.935698C9.27039e-08 0.952752 0.00810445 0.969107 0.0225303 0.981166C0.0369561 0.993225 0.0565218 1 0.076923 1H0.923075C0.943476 1 0.963042 0.993225 0.977468 0.981166C0.991894 0.969107 0.999998 0.952752 0.999998 0.935698V0.766583C1.00013 0.75027 0.992846 0.734525 0.979614 0.722536ZM0.923075 0.935698H0.076923V0.766261C0.131432 0.718281 0.197049 0.680075 0.269783 0.653966C0.342516 0.627858 0.420844 0.614394 0.499999 0.614394C0.579155 0.614394 0.657482 0.627858 0.730216 0.653966C0.802949 0.680075 0.868567 0.718281 0.923075 0.766261V0.935698Z" />
    </g>
  </symbol>
</svg>
