<?xml version="1.0" encoding="utf-8"?>
<svg xmlns="http://www.w3.org/2000/svg">
  <symbol id="upload" viewBox="0 0 1 1">
    <path d="M0.499942 0C0.514675 0 0.528803 0.00585333 0.539225 0.0162717L0.761446 0.238494C0.783141 0.26019 0.783141 0.295365 0.761446 0.317061C0.739752 0.338757 0.704575 0.338757 0.68288 0.317061L0.555497 0.189678V0.666666C0.555497 0.697349 0.530625 0.722221 0.499942 0.722221C0.469259 0.722221 0.444387 0.697349 0.444387 0.666666V0.189678L0.317003 0.317061C0.295307 0.338757 0.260131 0.338757 0.238436 0.317061C0.21674 0.295365 0.21674 0.26019 0.238436 0.238494L0.460659 0.0162717C0.471076 0.00585333 0.485209 0 0.499942 0ZM0.0554984 0.61111C0.0861805 0.61111 0.111054 0.635983 0.111054 0.666666C0.111054 0.720955 0.111323 0.739988 0.114256 0.754738C0.127407 0.820849 0.17909 0.872532 0.245205 0.885688C0.259951 0.888621 0.278984 0.888888 0.333275 0.888888H0.666608C0.720897 0.888888 0.73993 0.888621 0.754674 0.885688C0.820791 0.872532 0.872474 0.820849 0.885624 0.754738C0.888557 0.739988 0.888829 0.720955 0.888829 0.666666C0.888829 0.635983 0.913701 0.61111 0.944385 0.61111C0.975068 0.61111 0.99994 0.635983 0.99994 0.666666C0.99994 0.668844 0.99994 0.670983 0.99994 0.673094C0.999951 0.718521 0.999957 0.749477 0.994601 0.776416C0.972685 0.886605 0.886546 0.972743 0.776352 0.99466C0.749419 1.00002 0.718458 1.00001 0.673041 0.999999C0.670925 0.999999 0.66878 0.999999 0.666608 0.999999H0.333275C0.331099 0.999999 0.328955 0.999999 0.326843 0.999999C0.281421 1.00001 0.250461 1.00002 0.223528 0.99466C0.113336 0.972743 0.0271985 0.886605 0.00528025 0.776416C-7.69524e-05 0.749477 -6.97344e-05 0.718521 -5.80678e-05 0.673099C-5.75122e-05 0.670983 -5.69551e-05 0.668844 -5.69551e-05 0.666666C-5.69551e-05 0.635983 0.0248157 0.61111 0.0554984 0.61111Z"/>
  </symbol>
</svg>
