<?xml version="1.0" encoding="utf-8"?>
<svg xmlns="http://www.w3.org/2000/svg">
  <symbol id="configurations" viewBox="0 0 1 1">
    <g>
      <path d="M0 0.833333C0 0.810321 0.022386 0.791667 0.05 0.791667H0.4C0.427615 0.791667 0.45 0.810321 0.45 0.833333C0.45 0.856346 0.427615 0.875 0.4 0.875H0.05C0.022386 0.875 0 0.856346 0 0.833333Z" />
      <path d="M0.65 0.791667V0.708333C0.65 0.685321 0.627615 0.666667 0.6 0.666667C0.572385 0.666667 0.55 0.685321 0.55 0.708333V0.958333C0.55 0.981346 0.572385 1 0.6 1C0.627615 1 0.65 0.981346 0.65 0.958333V0.875H0.95C0.977615 0.875 1 0.856346 1 0.833333C1 0.810321 0.977615 0.791667 0.95 0.791667H0.65Z" />
      <path d="M0.5 0.458333C0.472385 0.458333 0.45 0.476988 0.45 0.5C0.45 0.523013 0.472385 0.541667 0.5 0.541667H0.95C0.977615 0.541667 1 0.523013 1 0.5C1 0.476988 0.977615 0.458333 0.95 0.458333H0.5Z" />
      <path d="M0 0.5C0 0.476988 0.022386 0.458333 0.05 0.458333H0.25V0.375C0.25 0.351988 0.272386 0.333333 0.3 0.333333C0.327614 0.333333 0.35 0.351988 0.35 0.375V0.625C0.35 0.648013 0.327614 0.666667 0.3 0.666667C0.272386 0.666667 0.25 0.648013 0.25 0.625V0.541667H0.05C0.022386 0.541667 0 0.523013 0 0.5Z" />
      <path d="M0.65 0.125V0.0416667C0.65 0.0186548 0.627615 0 0.6 0C0.572385 0 0.55 0.0186548 0.55 0.0416667V0.291667C0.55 0.314678 0.572385 0.333333 0.6 0.333333C0.627615 0.333333 0.65 0.314678 0.65 0.291667V0.208333H0.95C0.977615 0.208333 1 0.189678 1 0.166667C1 0.143655 0.977615 0.125 0.95 0.125H0.65Z" />
      <path d="M0 0.166667C0 0.189678 0.022386 0.208333 0.05 0.208333H0.4C0.427615 0.208333 0.45 0.189678 0.45 0.166667C0.45 0.143655 0.427615 0.125 0.4 0.125H0.05C0.022386 0.125 0 0.143655 0 0.166667Z" />
    </g>
  </symbok>
</svg>
