<?xml version="1.0" encoding="utf-8"?>
<svg xmlns="http://www.w3.org/2000/svg">
  <symbol id="edit">
    <path d="M0.750467 0.13628C0.766839 0.119832 0.78873 0.110924 0.811324 0.111515C0.833918 0.112106 0.855364 0.122148 0.870944 0.139432C0.886524 0.156716 0.894963 0.179826 0.894403 0.203679C0.893843 0.227531 0.88433 0.250171 0.867958 0.266619L0.282619 0.856102L0.131778 0.877026L0.193615 0.694462L0.750414 0.136336L0.750467 0.13628ZM0.947342 0.0625176C0.912458 0.0238641 0.864471 0.00140247 0.813915 6.34704e-05C0.763359 -0.00127553 0.714366 0.0186175 0.67769 0.0553758L0.111589 0.622708C0.105588 0.62872 0.101008 0.636136 0.0982169 0.644357L0.00308272 0.925401C3.54357e-05 0.934403 -0.000769987 0.94408 0.00074369 0.953505C0.00225737 0.96293 0.00603937 0.971786 0.011727 0.979224C0.0174147 0.986663 0.0248172 0.992434 0.0332247 0.995984C0.0416321 0.999534 0.0507626 1.00074 0.0597404 0.999498L0.313431 0.964346C0.324544 0.962819 0.334909 0.957602 0.343029 0.949449L0.940841 0.347411C0.977476 0.310531 0.998736 0.2598 0.999945 0.206374C1.00115 0.152948 0.982267 0.101203 0.947342 0.0625176ZM0.581446 0.888408C0.567428 0.888408 0.553985 0.894287 0.544073 0.90475C0.534162 0.915214 0.528593 0.929406 0.528593 0.944204C0.528593 0.959002 0.534162 0.973194 0.544073 0.983658C0.553985 0.994122 0.567428 1 0.581446 1H0.898559C0.912577 1 0.92602 0.994122 0.935932 0.983658C0.945843 0.973194 0.951412 0.959002 0.951412 0.944204C0.951412 0.929406 0.945843 0.915214 0.935932 0.90475C0.92602 0.894287 0.912577 0.888408 0.898559 0.888408H0.581446Z"/>
  </symbol>
</svg>
