<?xml version="1.0" encoding="utf-8"?>
<svg xmlns="http://www.w3.org/2000/svg">
  <symbol id="search" viewBox="0 0 1 1">
    <path d="M0.428572 0C0.191878 0 0 0.191878 0 0.428572C0 0.665267 0.191878 0.857144 0.428572 0.857144C0.529763 0.857144 0.622763 0.822072 0.696082 0.763425L0.918711 0.986054C0.937306 1.00465 0.967458 1.00465 0.986054 0.986054C1.00465 0.967458 1.00465 0.937306 0.986054 0.918711L0.763425 0.696082C0.822072 0.622763 0.857144 0.529763 0.857144 0.428572C0.857144 0.191878 0.665267 0 0.428572 0ZM0.0952382 0.428572C0.0952382 0.244477 0.244477 0.0952382 0.428572 0.0952382C0.612667 0.0952382 0.761906 0.244477 0.761906 0.428572C0.761906 0.612667 0.612667 0.761906 0.428572 0.761906C0.244477 0.761906 0.0952382 0.612667 0.0952382 0.428572Z" />
  </symbol>
</svg>
