<?xml version="1.0" encoding="utf-8"?>
<svg xmlns="http://www.w3.org/2000/svg">
  <symbol id="warning" viewBox="0 0 1 1">
    <path d="M0.494138 0.261904C0.517139 0.261904 0.535784 0.283224 0.535784 0.309523V0.595237C0.535784 0.621537 0.517139 0.642856 0.494138 0.642856C0.471137 0.642856 0.452492 0.621537 0.452492 0.595237V0.309523C0.452492 0.283224 0.471137 0.261904 0.494138 0.261904Z" />
    <path d="M0.494138 0.833332C0.528638 0.833332 0.556607 0.801351 0.556607 0.761904C0.556607 0.722456 0.528638 0.690475 0.494138 0.690475C0.459639 0.690475 0.431669 0.722456 0.431669 0.761904C0.431669 0.801351 0.459639 0.833332 0.494138 0.833332Z" />
    <path d="M0.403626 0.0585239C0.443905 -0.0195092 0.544376 -0.0195092 0.584656 0.0585239L0.979728 0.823923C1.02129 0.904442 0.967397 0.999999 0.889214 0.999999H0.0990672C0.0208857 0.999999 -0.0330059 0.904442 0.00855328 0.823923L0.403626 0.0585239ZM0.512925 0.106931C0.504875 0.0913391 0.483406 0.0913391 0.475356 0.106931L0.0802844 0.872332C0.0738888 0.884723 0.080593 0.904761 0.0990672 0.904761H0.889214C0.907689 0.904761 0.914394 0.884723 0.907997 0.872332L0.512925 0.106931Z" />
  </symbol>
</svg>
