<?xml version="1.0" encoding="utf-8"?>
<svg xmlns="http://www.w3.org/2000/svg">
  <symbol id="members" viewBox="0 0 1 1">
    <g>
      <path d="M0.375 0.0416565C0.248435 0.0416565 0.145833 0.144258 0.145833 0.270823C0.145833 0.397389 0.248435 0.49999 0.375 0.49999C0.501567 0.49999 0.604167 0.397389 0.604167 0.270823C0.604167 0.144258 0.501567 0.0416565 0.375 0.0416565ZM0.229167 0.270823C0.229167 0.190281 0.294458 0.12499 0.375 0.12499C0.455542 0.12499 0.520833 0.190281 0.520833 0.270823C0.520833 0.351365 0.455542 0.416656 0.375 0.416656C0.294458 0.416656 0.229167 0.351365 0.229167 0.270823Z" />
      <path d="M0.645833 0.0416565C0.622821 0.0416565 0.604167 0.0603113 0.604167 0.0833232C0.604167 0.106335 0.622821 0.12499 0.645833 0.12499C0.726375 0.12499 0.791667 0.190281 0.791667 0.270823C0.791667 0.351365 0.726375 0.416656 0.645833 0.416656C0.622821 0.416656 0.604167 0.435311 0.604167 0.458323C0.604167 0.481336 0.622821 0.49999 0.645833 0.49999C0.7724 0.49999 0.875 0.397389 0.875 0.270823C0.875 0.144258 0.7724 0.0416565 0.645833 0.0416565Z" />
      <path d="M0.795154 0.625644C0.804367 0.604556 0.828929 0.594931 0.850017 0.604144C0.938225 0.642681 1 0.73074 1 0.833323V0.916656C1 0.939669 0.981346 0.958323 0.958333 0.958323C0.935321 0.958323 0.916667 0.939669 0.916667 0.916656V0.833323C0.916667 0.765044 0.875604 0.706261 0.81665 0.680506C0.795562 0.671294 0.785937 0.646727 0.795154 0.625644Z" />
      <path d="M0.25 0.583323C0.111929 0.583323 0 0.695252 0 0.833323V0.916657C0 0.939669 0.0186548 0.958323 0.0416667 0.958323C0.0646783 0.958323 0.0833333 0.939669 0.0833333 0.916657V0.833323C0.0833333 0.741277 0.157952 0.666656 0.25 0.666656H0.5C0.592046 0.666656 0.666667 0.741277 0.666667 0.833323V0.916657C0.666667 0.939669 0.685321 0.958323 0.708333 0.958323C0.731346 0.958323 0.75 0.939669 0.75 0.916657V0.833323C0.75 0.695252 0.638071 0.583323 0.5 0.583323H0.25Z" />
    </g>
  </symbol>
</svg>

